<svg width="256" height="143" viewBox="0 0 256 143" fill="none" xmlns="http://www.w3.org/2000/svg"><path d="M99.58 142.058 47.489 47.424v19.27q0 4.174.073 8.242.072 3.962.219 7.815.219 7.708 1.242 14.452 1.023 6.637 3.068 12.204 1.9 5.352 5.407 9.528 3.433 3.96 8.548 6.423t12.42 2.783v10.063H1.023v-10.063q14.612-.75 22.794-6.423 8.184-5.781 11.47-18.948 3.361-13.167 3.361-36.077 0-17.556-2.264-28.582-2.192-11.134-6.941-17.343-4.675-6.316-12.055-8.457Q10.082 10.063 0 10.063V0l52.41.76 53.049 96.443 12.968-30.51L79.296.76 107.543 0l24.402 41.108L149.041 0H256v10.063q-10.01 0-17.169 2.355-7.16 2.248-11.689 8.35-4.457 6.102-6.576 17.235c-3.783 19.69-3.623 45.787 1.169 64.981q3.36 13.168 11.544 18.841 8.182 5.566 22.721 6.316v10.063H118.064v-10.063q7.379-.321 12.42-2.676 5.187-2.355 8.548-6.423 3.434-4.068 5.479-9.635 3.142-8.672 3.8-19.697.73-11.026.73-23.017V26.335z" fill="#009680"/></svg>